<?xml version="1.0" encoding="UTF-8" standalone="no"?>
<svg
   xmlns:dc="http://purl.org/dc/elements/1.1/"
   xmlns:cc="http://creativecommons.org/ns#"
   xmlns:rdf="http://www.w3.org/1999/02/22-rdf-syntax-ns#"
   xmlns:svg="http://www.w3.org/2000/svg"
   xmlns="http://www.w3.org/2000/svg"
   viewBox="0 0 490.66666 514.66669"
   height="514.66669"
   width="490.66666"
   xml:space="preserve"
   id="svg2"
   version="1.1"><metadata
     id="metadata8"><rdf:RDF><cc:Work
         rdf:about=""><dc:format>image/svg+xml</dc:format><dc:type
           rdf:resource="http://purl.org/dc/dcmitype/StillImage" /></cc:Work></rdf:RDF></metadata><defs
     id="defs6"><clipPath
       id="clipPath20"
       clipPathUnits="userSpaceOnUse"><path
         id="path18"
         d="M 0,0 H 368 V 386 H 0 Z" /></clipPath></defs><g
     transform="matrix(1.3333333,0,0,-1.3333333,0,514.66667)"
     id="g10"><g
       id="g12" /><g
       id="g14"><g
         clip-path="url(#clipPath20)"
         id="g16"><path
           id="path22"
           style="fill:#ffffff;fill-opacity:0;fill-rule:nonzero;stroke:none"
           d="M 0,0 H 368 V 386 H 0 Z" /></g></g><g
       id="g24"><path
         id="path26"
         style="fill:#245fd5;fill-opacity:1;fill-rule:nonzero;stroke:none"
         d="M 4.999217,139.8349 40.45312,306.7263 184,381 327.5469,306.7263 363.0008,139.8349 263.6621,5.997932 H 104.338 Z" /><g
         transform="matrix(7.874016e-5,0,0,-7.874016e-5,5,381)"
         id="g28"><path
           id="path30"
           style="fill:none;stroke:#245fd5;stroke-width:127000;stroke-linecap:round;stroke-linejoin:round;stroke-miterlimit:10;stroke-dasharray:none;stroke-opacity:1"
           d="M -9.944445,3062797 450254.6,943276.1 2273300,0 4096345,943276.1 4546610,3062797 3285008,4762526 H 1261592 Z" /></g><path
         id="path32"
         style="fill:#edf2ff;fill-opacity:1;fill-rule:nonzero;stroke:none"
         d="m 187.1064,155.1018 -7.6235,-95.37808 -4.4183,0.25049 3.2052,95.62859 z" /><g
         transform="matrix(-7.861393e-5,4.456819e-6,4.456819e-6,7.861393e-5,181.6921,59.59848)"
         id="g34"><path
           id="path36"
           style="fill:none;stroke:#245fd5;stroke-width:12700;stroke-linecap:butt;stroke-linejoin:miter;stroke-miterlimit:8;stroke-dasharray:none;stroke-opacity:1"
           d="M 0,1214840 28101.83,0 H 84304.17 L 112406,1214840 Z" /></g><path
         id="path38"
         style="fill:#edf2ff;fill-opacity:1;fill-rule:nonzero;stroke:none"
         d="m 193.0027,161.3208 53.0001,-97.01726 -5.3762,-3.13668 -58.3763,93.88054 z" /><g
         transform="matrix(-6.801109e-5,-3.968002e-5,-3.968002e-5,6.801109e-5,248.6909,65.87189)"
         id="g40"><path
           id="path42"
           style="fill:none;stroke:#245fd5;stroke-width:38100;stroke-linecap:butt;stroke-linejoin:miter;stroke-miterlimit:8;stroke-dasharray:none;stroke-opacity:1"
           d="M 0,1403431 39524.75,0 H 118574.3 L 158099,1403431 Z" /></g><path
         id="path44"
         style="fill:#edf2ff;fill-opacity:1;fill-rule:nonzero;stroke:none"
         d="M 184.9561,155.4955 121.7117,55.68524 115.8169,59.185 173.1668,162.4949 Z" /><g
         transform="matrix(-6.770631e-5,4.019787e-5,4.019787e-5,6.770631e-5,124.659,53.93539)"
         id="g46"><path
           id="path48"
           style="fill:none;stroke:#245fd5;stroke-width:38100;stroke-linecap:butt;stroke-linejoin:miter;stroke-miterlimit:8;stroke-dasharray:none;stroke-opacity:1"
           d="M 0,1500009 43530.84,0 H 130594.2 L 174125,1500009 Z" /></g><path
         id="path50"
         style="fill:#edf2ff;fill-opacity:1;fill-rule:nonzero;stroke:none"
         d="m 177,166 h 10 v 17 h -10 z" /><path
         id="path52"
         style="fill:#245fd5;fill-opacity:1;fill-rule:nonzero;stroke:none"
         d="m 171,162.5 c 0,5.799 4.9249,10.5 11,10.5 6.0751,0 11,-4.701 11,-10.5 0,-5.799 -4.9249,-10.5 -11,-10.5 -6.0751,0 -11,4.701 -11,10.5 z" /><path
         id="path54"
         style="fill:#edf2ff;fill-opacity:1;fill-rule:nonzero;stroke:none"
         d="m 173,162 c 0,4.4183 3.8056,8 8.5,8 4.6944,0 8.5,-3.5817 8.5,-8 0,-4.4183 -3.8056,-8 -8.5,-8 -4.6944,0 -8.5,3.5817 -8.5,8 z" /><path
         id="path56"
         style="fill:#edf2ff;fill-opacity:1;fill-rule:nonzero;stroke:none"
         d="m 121.322,205.5792 c -1.6241,-0.5108 -1.2846,-6.1914 0.7583,-12.688 2.043,-6.4966 5.0158,-11.3491 6.64,-10.8384 L 84.78113,168.2354 c -1.62416,-0.5107 -4.59696,4.3418 -6.63993,10.8384 -2.04298,6.4966 -2.38249,12.1772 -0.75832,12.688 z" /><path
         id="path58"
         style="fill:#f4f7ff;fill-opacity:1;fill-rule:nonzero;stroke:none"
         d="m 121.322,205.5792 c 1.6242,0.5107 4.597,-4.3418 6.64,-10.8384 2.0429,-6.4967 2.3824,-12.1773 0.7583,-12.688 -1.6242,-0.5107 -4.597,4.3418 -6.64,10.8384 -2.0429,6.4966 -2.3824,12.1772 -0.7583,12.688 z" /><path
         id="path60"
         style="fill:#245fd5;fill-opacity:1;fill-rule:nonzero;stroke:none"
         d="m 122.1052,205.9808 c -1.6241,-0.5108 -1.2846,-6.1914 0.7584,-12.688 2.043,-6.4966 5.0157,-11.3492 6.6399,-10.8384 l -43.03155,-13.532 c -1.62415,-0.5107 -4.59694,4.3418 -6.63991,10.8385 -2.04298,6.4966 -2.38251,12.1772 -0.75837,12.688 z" /><path
         id="path62"
         style="fill:#7c9fe6;fill-opacity:1;fill-rule:nonzero;stroke:none"
         d="m 122.1052,205.9808 c 1.6242,0.5107 4.597,-4.3418 6.6399,-10.8384 2.043,-6.4967 2.3825,-12.1773 0.7584,-12.688 -1.6242,-0.5108 -4.5969,4.3418 -6.6399,10.8384 -2.043,6.4966 -2.3825,12.1772 -0.7584,12.688 z" /><path
         id="path64"
         style="fill:#edf2ff;fill-opacity:1;fill-rule:nonzero;stroke:none"
         d="m 123.2847,206.2309 c -1.6241,-0.5108 -1.2846,-6.1914 0.7584,-12.688 2.0429,-6.4967 5.0157,-11.3492 6.6399,-10.8385 L 88.42494,169.4157 c -1.62417,-0.5108 -4.59698,4.3418 -6.63996,10.8384 -2.04297,6.4967 -2.38249,12.1773 -0.75832,12.688 z" /><path
         id="path66"
         style="fill:#f4f7ff;fill-opacity:1;fill-rule:nonzero;stroke:none"
         d="m 123.2847,206.2309 c 1.6242,0.5107 4.597,-4.3418 6.64,-10.8385 2.043,-6.4966 2.3825,-12.1772 0.7583,-12.688 -1.6242,-0.5107 -4.597,4.3418 -6.6399,10.8385 -2.043,6.4966 -2.3825,12.1772 -0.7584,12.688 z" /><path
         id="path68"
         style="fill:#edf2ff;fill-opacity:1;fill-rule:nonzero;stroke:none"
         d="m 80.74855,201.8388 c 0.20081,-0.6386 2.43416,-0.5051 4.98834,0.2981 2.55418,0.8032 4.46197,1.972 4.26117,2.6105 l 3.31023,-10.5265 c 0.20081,-0.6385 -1.70698,-1.8073 -4.26117,-2.6105 -2.55418,-0.8032 -4.78753,-0.9367 -4.98833,-0.2981 z" /><path
         id="path70"
         style="fill:#f4f7ff;fill-opacity:1;fill-rule:nonzero;stroke:none"
         d="m 80.74855,201.8388 c -0.2008,0.6385 1.70699,1.8073 4.26117,2.6105 2.55418,0.8032 4.78754,0.9367 4.98834,0.2981 0.2008,-0.6385 -1.70699,-1.8073 -4.26117,-2.6105 -2.55418,-0.8032 -4.78753,-0.9367 -4.98834,-0.2981 z" /><path
         id="path72"
         style="fill:#edf2ff;fill-opacity:1;fill-rule:nonzero;stroke:none"
         d="m 192.9271,193.1624 0.5287,-8.8466 -28.2965,-8.8983 -4.6297,7.557 z" /><path
         id="path74"
         style="fill:#2f5597;fill-opacity:1;fill-rule:nonzero;stroke:none"
         d="m 127.0858,180.8732 c -3.9363,7.2578 -7.052,18.1231 -7.2302,25.2138 l 7.7238,-12.7896 z" /><g
         transform="matrix(7.511373e-5,2.362075e-5,2.362075e-5,-7.511373e-5,116.6861,210.5565)"
         id="g76"><path
           id="path78"
           style="fill:none;stroke:#245fd5;stroke-width:38100;stroke-linecap:butt;stroke-linejoin:miter;stroke-miterlimit:8;stroke-dasharray:none;stroke-opacity:1"
           d="M 12906.43,399236.3 C -7130.984,296311.4 -3483.31,152807.4 21371.14,66224.18 L 66219.77,250597 Z" /></g><path
         id="path80"
         style="fill:#edf2ff;fill-opacity:1;fill-rule:nonzero;stroke:none"
         d="m 238.4145,248.8361 c -2.599,-0.8173 -2.0557,-9.9073 1.2134,-20.3032 3.2691,-10.3958 8.0262,-18.1607 10.6252,-17.3434 L 133.7413,174.5504 c -2.599,-0.8172 -7.3561,6.9477 -10.6252,17.3435 -3.2691,10.3958 -3.8124,19.4858 -1.2134,20.3031 z" /><path
         id="path82"
         style="fill:#f4f7ff;fill-opacity:1;fill-rule:nonzero;stroke:none"
         d="m 238.4145,248.8361 c 2.599,0.8173 7.356,-6.9477 10.6252,-17.3435 3.2691,-10.3958 3.8124,-19.4858 1.2134,-20.3031 -2.599,-0.8173 -7.3561,6.9476 -10.6252,17.3434 -3.2691,10.3959 -3.8124,19.4859 -1.2134,20.3032 z" /><path
         id="path84"
         style="fill:#2f5597;fill-opacity:1;fill-rule:nonzero;stroke:none"
         d="m 243.6696,209.6532 c -5.7687,8.6106 -11.2191,24.977 -12.1739,36.5554 -0.0463,0.5616 -0.0814,1.1062 -0.1051,1.6325 l 10.5502,-17.2233 z" /><g
         transform="matrix(7.511373e-5,2.362075e-5,2.362075e-5,-7.511373e-5,227.0414,254.5486)"
         id="g86"><path
           id="path88"
           style="fill:none;stroke:#245fd5;stroke-width:38100;stroke-linecap:butt;stroke-linejoin:miter;stroke-miterlimit:8;stroke-dasharray:none;stroke-opacity:1"
           d="M 30409.56,607262 C -6674.147,480967.1 -10354.12,261921.8 22190.1,118010.5 23768.69,111030 25418.92,104298.4 27136.79,97832.16 L 89336,346687.5 Z" /></g><path
         id="path90"
         style="fill:#edf2ff;fill-opacity:1;fill-rule:nonzero;stroke:none"
         d="m 288.001,273.7183 c -3.5955,-1.1307 -2.8439,-13.7062 1.6788,-28.0882 4.5227,-14.3821 11.1038,-25.1244 14.6993,-23.9938 L 250.4073,204.664 c -3.5955,-1.1307 -10.1766,9.6117 -14.6993,23.9937 -4.5227,14.3821 -5.2743,26.9576 -1.6788,28.0883 z" /><path
         id="path92"
         style="fill:#f4f7ff;fill-opacity:1;fill-rule:nonzero;stroke:none"
         d="m 288.001,273.7183 c 3.5956,1.1307 10.1767,-9.6117 14.6993,-23.9937 4.5227,-14.382 5.2743,-26.9576 1.6788,-28.0883 -3.5955,-1.1306 -10.1766,9.6117 -14.6993,23.9938 -4.5227,14.382 -5.2743,26.9575 -1.6788,28.0882 z" /><path
         id="path94"
         style="fill:#edf2ff;fill-opacity:1;fill-rule:nonzero;stroke:none"
         d="m 289.4622,245.5617 c -4.5227,14.382 -5.2754,26.9572 -1.6813,28.0874 3.5941,1.1303 10.1741,-9.6125 14.6967,-23.9945 4.5227,-14.3821 5.2755,-26.9573 1.6814,-28.0875 -3.5941,-1.1302 -10.1741,9.6125 -14.6968,23.9946 z" /><path
         id="path96"
         style="fill:#245fd5;fill-opacity:1;fill-rule:nonzero;stroke:none"
         d="m 292.3943,246.4837 c -3.7501,11.9254 -5.1894,22.0962 -3.2146,22.7172 1.9747,0.621 6.6157,-8.543 10.3658,-20.4683 3.7501,-11.9254 5.1893,-22.0962 3.2146,-22.7172 -1.9748,-0.621 -6.6157,8.543 -10.3658,20.4683 z" /><path
         id="path98"
         style="fill:#edf2ff;fill-opacity:1;fill-rule:nonzero;stroke:none"
         d="m 80.85824,201.4903 c -0.34778,1.1059 1.44086,2.6536 3.99504,3.4568 2.55418,0.8032 4.90668,0.5578 5.25446,-0.5481 0.34778,-1.106 -1.44087,-2.6536 -3.99505,-3.4568 -2.55418,-0.8032 -4.90668,-0.5578 -5.25445,0.5481 z" /><g
         transform="matrix(7.874016e-5,0,0,7.874016e-5,123,170.3609)"
         id="g100"><path
           id="path102"
           style="fill:none;stroke:#245fd5;stroke-width:25400;stroke-linecap:butt;stroke-linejoin:miter;stroke-miterlimit:8;stroke-dasharray:none;stroke-opacity:1"
           d="M 0,0 1479700,465316" /></g></g></g></svg>
