<svg xmlns="http://www.w3.org/2000/svg" height="532" width="548">
  <path d="M274 10L68 109 17 333l142 179h230l142-179-51-224z" fill="#245fd5" stroke-linejoin="round" stroke-width="20" stroke="#245fd5"/>
  <g fill="#edf2ff">
    <circle cx="268.934" cy="293.116" r="11.176"/>
    <path d="M271.199 309.099l-6.559 10.163-3.93 109.114 4.655.162 9.05-114.285z"/>
    <path d="M256.048 299.644l-72.027 129.899 4.307 2.644 78.991-124.714c-5.485-1.443-9.254-4.045-11.271-7.829z" />
    <path d="M274.693 306.189l73.654 118.577 3.16-2.133-68.421-125.426c-1.498 5.394-4.907 7.26-8.393 8.982z" />
    <path d="M242.827 268.477l4.351 6.881 15.1-4.855v9.56c4.15-1.847 8.425-2.83 13.251 0v-13.653l8.527-2.708v-8.27z" />
    <path d="M337.72 167.05c-8.68 16.754 13.932 71.589 22.58 69.503l73.284-23.12c6.743-11.623-7.908-63.742-22.095-69.296z" />
    <path d="M188.438 226.865c-5.236 15.961 11.396 51.526 15.875 49.545l145.677-45.43c-5.262-10.827-12.815-19.77-16.933-49.806zM134.455 240.154l3.51 10.913-3.807 1.273c-3.604 8.65 7.114 32.389 10.5 30.924l48.89-15.138c-1.76-4.805-8.563-18.89-8.904-31.763l-34.406 10.91-3.816-11.579c-6.33-1.008-10.985 1.865-11.968 4.46z"/>
    <path d="M128.88 253.825c-2.897 11.73 7.979 32.467 10.125 31.527l2.373-.888c-1.459-1.108-11.685-14.015-10.29-31.174z"/>
  </g>
  <ellipse cx="345.967" cy="304.857" fill="#245fd5" rx="4.487" ry="30.105" transform="matrix(.94852 -.31673 .30145 .95348 0 0)"/>
</svg>
